<?xml version="1.0" encoding="utf-8"?>
<!-- Generator: Adobe Illustrator 16.0.0, SVG Export Plug-In . SVG Version: 6.00 Build 0)  -->
<!DOCTYPE svg PUBLIC "-//W3C//DTD SVG 1.1//EN" "http://www.w3.org/Graphics/SVG/1.1/DTD/svg11.dtd">
<svg version="1.1" id="Layer_1" xmlns="http://www.w3.org/2000/svg" xmlns:xlink="http://www.w3.org/1999/xlink" x="0px" y="0px"
	 width="693px" height="399.853px" viewBox="0 0 693 399.853" enable-background="new 0 0 693 399.853" xml:space="preserve">
<g>
	<defs>
		<path id="SVGID_1_" d="M-85,566.843"/>
	</defs>
	<clipPath id="SVGID_2_">
		<use xlink:href="#SVGID_1_"  overflow="visible"/>
	</clipPath>
	
		<rect x="-89.398" y="341.548" clip-path="url(#SVGID_2_)" fill-rule="evenodd" clip-rule="evenodd" fill="#12122D" width="811.689" height="61.455"/>
</g>
<rect y="338.853" fill-rule="evenodd" clip-rule="evenodd" fill="#12122D" width="693" height="61"/>
<g>
	<rect x="105.063" fill="#FEC015" width="66.283" height="249.544"/>
	<path fill="#363F45" d="M298.105,252.482h13.68c-4.614,0-9.174-0.265-13.68-0.738V252.482z"/>
	<path fill="#FEC015" d="M362.091,159.38h71.722c-1.455,5.301-3.229,10.502-5.391,15.571c-1.646,3.856-3.465,7.606-5.445,11.247
		c-5.859,10.758-13.156,20.541-21.794,29.184c-11.562,11.556-25.063,20.712-40.128,27.219c-15.159,6.552-31.737,9.881-49.27,9.881
		c-4.615,0-9.175-0.263-13.68-0.737c-12.262-1.3-24.092-4.345-35.297-9.13c-15.279-6.514-28.815-15.696-40.221-27.293
		c-11.363-11.535-20.422-25.122-26.924-40.37c-6.541-15.32-9.861-31.802-9.861-48.968V0h66.283v125.983
		c0,8.26,1.561,16.164,4.64,23.482c3.098,7.383,7.411,13.863,12.819,19.262c5.43,5.439,11.844,9.757,19.073,12.855
		c7.14,3.059,14.933,4.615,23.167,4.615c8.253,0,16.159-1.563,23.493-4.642c7.365-3.099,13.847-7.417,19.259-12.822
		C357.367,165.899,359.879,162.769,362.091,159.38"/>
	<polygon fill="#FEC015" points="372,0 372,66.285 372,93.102 438.283,93.102 438.283,66.285 438.283,0 	"/>
	<path fill="#12122D" d="M505.07,66.285h-66.787V0h66.787V66.285z M521.58,141.39c-4.13-9.638-9.931-18.135-17.245-25.255
		c-7.243-7.041-15.759-12.69-25.314-16.79c-9.679-4.14-20.155-6.243-31.14-6.243h-9.597h-66.283h-17.219
		c-3.821,0-6.674-1.2-9.26-3.89c-2.652-2.749-3.889-5.86-3.889-9.782c0-3.844,1.194-6.823,3.757-9.388
		c2.564-2.564,5.549-3.757,9.392-3.757h17.219V0h-17.219c-10.991,0-21.471,2.103-31.143,6.249
		c-9.597,4.114-18.06,9.796-25.153,16.889c-7.093,7.087-12.773,15.551-16.887,25.15c-4.148,9.684-6.251,20.159-6.251,31.142
		c0,10.995,2.103,21.477,6.249,31.141c4.092,9.552,9.74,18.069,16.789,25.314c7.109,7.312,15.607,13.119,25.25,17.246
		c9.671,4.146,20.149,6.249,31.146,6.249h7.309h71.722h14.068c4.188,0,7.34,1.2,9.9,3.758c2.568,2.571,3.765,5.558,3.765,9.395
		c0,4.191-1.195,7.343-3.756,9.908c-2.566,2.563-5.714,3.757-9.909,3.757h-24.904c-5.858,10.759-13.157,20.542-21.794,29.184
		c-11.561,11.556-25.062,20.713-40.129,27.219c-15.158,6.554-31.737,9.883-49.269,9.883h136.096c10.987,0,21.465-2.104,31.141-6.249
		c9.604-4.12,18.154-9.89,25.417-17.147c7.27-7.277,13.037-15.827,17.14-25.413c4.149-9.67,6.253-20.145,6.253-31.141
		C527.831,161.549,525.728,151.067,521.58,141.39"/>
	<text transform="matrix(1 0 0 1 105.0615 307.2051)"><tspan x="0" y="0" fill="#12122D" font-family="'Quicksand-SemiBold'" font-size="38.9239" letter-spacing="31">SO</tspan><tspan x="108.286" y="0" fill="#12122D" font-family="'Quicksand-SemiBold'" font-size="38.9239" letter-spacing="30">L</tspan><tspan x="157.019" y="0" fill="#12122D" font-family="'Quicksand-SemiBold'" font-size="38.9239" letter-spacing="31">UT</tspan><tspan x="263.824" y="0" fill="#12122D" font-family="'Quicksand-SemiBold'" font-size="38.9239" letter-spacing="31">I</tspan><tspan x="304.228" y="0" fill="#12122D" font-family="'Quicksand-SemiBold'" font-size="38.9239" letter-spacing="31">O</tspan><tspan x="362.185" y="0" fill="#12122D" font-family="'Quicksand-SemiBold'" font-size="38.9239">N</tspan></text>
	<text transform="matrix(1 0 0 1 57.8662 379.2744)"><tspan x="0" y="0" fill="#FFFFFF" font-family="'olivier'" font-size="36" letter-spacing="2">#</tspan><tspan x="20.772" y="0" fill="#FFFFFF" font-family="'olivier'" font-size="36" letter-spacing="2">I</tspan><tspan x="32.22" y="0" fill="#FFFFFF" font-family="'olivier'" font-size="36" letter-spacing="2">nve</tspan><tspan x="96.19" y="0" fill="#FFFFFF" font-family="'olivier'" font-size="36" letter-spacing="1">n</tspan><tspan x="117.179" y="0" fill="#FFFFFF" font-family="'olivier'" font-size="36" letter-spacing="2">t</tspan><tspan x="131.974" y="0" fill="#FFFFFF" font-family="'olivier'" font-size="36" letter-spacing="2">i</tspan><tspan x="142.847" y="0" fill="#FFFFFF" font-family="'olivier'" font-size="36" letter-spacing="2">n</tspan><tspan x="164.878" y="0" fill="#FFFFFF" font-family="'olivier'" font-size="36" letter-spacing="2">g </tspan><tspan x="198.394" y="0" fill="#FFFFFF" font-family="'olivier'" font-size="36" letter-spacing="1">T</tspan><tspan x="217.473" y="0" fill="#FFFFFF" font-family="'olivier'" font-size="36" letter-spacing="2">ech f</tspan><tspan x="304.159" y="0" fill="#FFFFFF" font-family="'olivier'" font-size="36" letter-spacing="2">o</tspan><tspan x="326.407" y="0" fill="#FFFFFF" font-family="'olivier'" font-size="36" letter-spacing="2">r </tspan><tspan x="351.571" y="0" fill="#FFFFFF" font-family="'olivier'" font-size="36">T</tspan><tspan x="370.11" y="0" fill="#FFFFFF" font-family="'olivier'" font-size="36" letter-spacing="2">o</tspan><tspan x="392.755" y="0" fill="#FFFFFF" font-family="'olivier'" font-size="36" letter-spacing="3">m</tspan><tspan x="426.415" y="0" fill="#FFFFFF" font-family="'olivier'" font-size="36" letter-spacing="2">o</tspan><tspan x="448.662" y="0" fill="#FFFFFF" font-family="'olivier'" font-size="36" letter-spacing="2">rrow…</tspan><tspan x="568.866" y="0" fill="#FFFFFF" font-family="'olivier'" font-size="36">!</tspan></text>
</g>
</svg>
